<svg xmlns="http://www.w3.org/2000/svg" width="11" height="21" viewBox="0 0 11 21" fill="none"> <rect width="9.5627" height="19" fill="black" fill-opacity="0" transform="translate(1.00006 1.00003)"/> <rect width="9.5627" height="19" fill="black" fill-opacity="0" transform="translate(10.5627 1.00003) scale(-1 1)"/> <path fill-rule="evenodd" clip-rule="evenodd" d="M2.26114 3.70369L5.25006 1.55457L4.31687 1.00003L0.999972 3.38498V17.6151L4.31687 20L5.25006 19.4455L2.26114 17.2964V3.70369Z" fill="white" stroke="white" stroke-width="0.25"/> <path opacity="0.6" fill-rule="evenodd" clip-rule="evenodd" d="M6.16246 5.15178L8.28589 3.53115L7.65254 3.17657L5.32858 4.95026V15.5662L7.65254 17.3399L8.28589 16.9853L6.16246 15.3647V5.15178Z" fill="white"/> <path opacity="0.35" fill-rule="evenodd" clip-rule="evenodd" d="M8.98231 6.53928L10.5627 5.36556L10.1249 5.18765L8.4377 6.44066V13.9849L10.1249 15.2379L10.5627 15.06L8.98231 13.8863V6.53928Z" fill="white"/> </svg>