<svg width="467" height="264" viewBox="0 0 467 264" fill="none" xmlns="http://www.w3.org/2000/svg">
<g filter="url(#filter0_d)">
<path d="M16.1297 22.7578C13.9318 19.4338 16.3154 15 20.3004 15H446.866C451.011 15 453.356 19.7529 450.835 23.0421L414.306 70.6891C413.637 71.562 413.275 72.6312 413.275 73.7312V192.576C413.275 193.711 413.661 194.812 414.37 195.699L450.503 240.877C453.122 244.151 450.791 249 446.598 249H20.5234C16.4939 249 14.1196 244.478 16.4077 241.161L47.829 195.611C48.4048 194.777 48.7132 193.786 48.7132 192.772V73.5387C48.7132 72.558 48.4248 71.5989 47.8839 70.7809L16.1297 22.7578Z" fill="white"/>
</g>
<defs>
<filter id="filter0_d" x="0.291992" y="0" width="466.584" height="264" filterUnits="userSpaceOnUse" color-interpolation-filters="sRGB">
<feFlood flood-opacity="0" result="BackgroundImageFix"/>
<feColorMatrix in="SourceAlpha" type="matrix" values="0 0 0 0 0 0 0 0 0 0 0 0 0 0 0 0 0 0 127 0"/>
<feOffset/>
<feGaussianBlur stdDeviation="7.5"/>
<feColorMatrix type="matrix" values="0 0 0 0 0 0 0 0 0 0 0 0 0 0 0 0 0 0 0.05 0"/>
<feBlend mode="normal" in2="BackgroundImageFix" result="effect1_dropShadow"/>
<feBlend mode="normal" in="SourceGraphic" in2="effect1_dropShadow" result="shape"/>
</filter>
</defs>
</svg>
